<svg xmlns="http://www.w3.org/2000/svg" viewBox="0 0 68.43 66.65"><defs><style>.a{opacity:0.5;}.b{fill:#fac91b;}</style></defs><g class="a"><path class="b" d="M26.34,28.41c4.08-1.22,5.91-7.55,4.07-14.14S23.78,3.34,19.69,4.56s-5.91,7.55-4.08,14.13S22.25,29.63,26.34,28.41Z"/><path class="b" d="M13.94,41.51c3.55-2,4-8.26,1-14S6.62,18.76,3.06,20.75s-4,8.27-1,14S10.38,43.51,13.94,41.51Z"/><path class="b" d="M34.05,29.72c-14.36,0-30.27,31.53-18.36,35.91,9.7,3.57,9.82-4.17,17.85-3.79l.51,0,.52,0c8-.38,8.14,7.36,17.85,3.79C64.32,61.25,48.41,29.72,34.05,29.72Z"/><path class="b" d="M41.77,28.41c4.08,1.22,8.88-3.13,10.72-9.72s0-12.91-4.08-14.13-8.89,3.13-10.72,9.71S37.68,27.19,41.77,28.41Z"/><path class="b" d="M65,20.75c-3.56-2-8.87,1-11.87,6.77s-2.56,12,1,14,8.88-1,11.87-6.76S68.6,22.75,65,20.75Z"/><path class="b" d="M51.45.4a3.67,3.67,0,0,0-3.79,2.43l3.79,1.76A5.56,5.56,0,0,1,51.45.4Z"/><path class="b" d="M21,3.12A5.24,5.24,0,0,1,18.1.23a3.94,3.94,0,0,0-.91,4.52Z"/><path class="b" d="M4.32,19.32a5.19,5.19,0,0,1-3.27-2.47,3.94,3.94,0,0,0-.32,4.6Z"/><path class="b" d="M68.33,17.11a3.67,3.67,0,0,0-4.11,1.8l3.47,2.34A5.54,5.54,0,0,1,68.33,17.11Z"/></g></svg>