<?xml version="1.0" encoding="utf-8"?>
<!-- Generator: Adobe Illustrator 24.3.0, SVG Export Plug-In . SVG Version: 6.00 Build 0)  -->
<svg version="1.1" xmlns="http://www.w3.org/2000/svg" xmlns:xlink="http://www.w3.org/1999/xlink" x="0px" y="0px"
	 viewBox="0 0 68.9 66.9" enable-background="new 0 0 68.9 66.9" xml:space="preserve">
<g id="OBJECTS">
	<g>
		<g>
			<path fill="#FFFFFF" d="M26.6,28.5c4.1-1.2,5.9-7.6,4.1-14.1C28.8,7.7,24,3.4,19.9,4.6c-4.1,1.2-5.9,7.5-4.1,14.1
				C17.7,25.3,22.5,29.7,26.6,28.5z"/>
			<path fill="#FFFFFF" d="M14.2,41.6c3.6-2,4-8.3,1-14c-3-5.7-8.3-8.8-11.9-6.8c-3.6,2-4,8.3-1,14C5.3,40.5,10.6,43.6,14.2,41.6z"
				/>
			<path fill="#FFFFFF" d="M34.3,29.8C19.9,29.8,4,61.3,15.9,65.7c9.7,3.6,9.8-4.2,17.9-3.8c0.2,0,0.3,0,0.5,0c0.2,0,0.3,0,0.5,0
				c8-0.4,8.1,7.4,17.8,3.8C64.5,61.3,48.6,29.8,34.3,29.8z"/>
			<path fill="#FFFFFF" d="M42,28.5c4.1,1.2,8.9-3.1,10.7-9.7c1.8-6.6,0-12.9-4.1-14.1c-4.1-1.2-8.9,3.1-10.7,9.7
				C36.1,20.9,37.9,27.2,42,28.5z"/>
			<path fill="#FFFFFF" d="M65.3,20.8c-3.6-2-8.9,1-11.9,6.8c-3,5.7-2.6,12,1,14c3.6,2,8.9-1,11.9-6.8
				C69.3,29.1,68.8,22.8,65.3,20.8z"/>
			<path fill="#FFFFFF" d="M51.7,0.5c-0.5,0-2.5-0.2-3.8,2.4c1,0.5,3.8,1.8,3.8,1.8S50.7,2.3,51.7,0.5z"/>
			<path fill="#FFFFFF" d="M21.3,3.2c0,0-2.3-0.9-2.9-2.9C18,0.7,16.4,2,17.4,4.8C18.4,4.4,21.3,3.2,21.3,3.2z"/>
			<path fill="#FFFFFF" d="M4.6,19.4c0,0-2.4-0.6-3.3-2.5c-0.3,0.4-1.7,2-0.3,4.6C1.9,20.9,4.6,19.4,4.6,19.4z"/>
			<path fill="#FFFFFF" d="M68.6,17.2c-0.5-0.1-2.5-0.6-4.1,1.8c0.9,0.6,3.5,2.3,3.5,2.3S67.3,18.8,68.6,17.2z"/>
		</g>
	</g>
</g>
<g id="DESIGNED_BY_FREEPIK">
</g>
</svg>
