<svg xmlns="http://www.w3.org/2000/svg" viewBox="0 0 532 391"><defs><style>.a{fill:#ec1c24;stroke-width:4px;}.a,.b{stroke:#fff;}.a,.c{stroke-miterlimit:20;}.b{stroke-miterlimit:10;stroke-width:3px;}.c{fill:#fff;stroke:#000;}</style></defs><path class="a" d="M202.71,211.44c-131.52,17.65-184.25-48-184.25-48s33.48,29.43,170,24.26"/><path class="b" d="M229,182.77c26.48-3.83,104.22-24.44,104.22-24.44S319,230.68,289.34,220.4c-40.7-14.13-156.22,27.33-175.9-2.26C113.44,218.14,198.55,187.16,229,182.77Z"/><path class="b" d="M309.17,68.59C354.7,26.5,464.43,43.87,464.43,43.87s-96.65-3.8-116.6,64"/><path class="b" d="M50.14,112.67s134.79-.6,162.47,0c15.09.33,31.53-33.71,45.25-40,7.21-3.3,113.42-10.47,139.41,8.63,21.08,15.5,30.85,85.07,18.46,112.84-9.31,20.88-40.26,26.63-63.6,29.75-22.39,3-82.06-1-103.5-20.43-21.74-19.68-77-2.14-133.37-12.64C63.47,181.16,50.14,112.67,50.14,112.67Z"/><path class="b" d="M343.47,82.72c48.86-54.69,172-13.89,172-13.89S430,60.29,391.64,126.9"/><polygon class="c" points="326.68 259.68 343.47 169.71 447.95 383.6 346.56 68.47 321.79 147.2 288.55 1.69 167.05 1.69 326.68 259.68"/><path d="M152.51,293.48l-29.69-50.26h59.31Z"/><rect x="184.47" y="243.29" width="24.39" height="46.91"/><path d="M256.52,262.38a18.79,18.79,0,0,1-7.31,14.95l6.9,12.93H214.9v-47h22.52A19.09,19.09,0,0,1,256.52,262.38Z"/><path d="M287,240l29.62,50.2H257.39Z"/><path d="M254.11,324.45v23.46H217.65V301h23.46v23.46Z"/><path d="M285.67,297.71l29.63,50.2H256.05Z"/><polygon points="342.77 347.97 319.32 347.97 319.32 324.52 309.6 324.52 309.6 300.99 351.89 300.99 351.89 324.52 342.77 324.52 342.77 347.97"/><path d="M376.08,297.71l29.62,50.2H346.46Z"/><polygon points="235.56 107.82 244.5 122.58 311.75 115.46 305.14 89.55 235.56 107.82"/></svg>