<svg xmlns="http://www.w3.org/2000/svg" viewBox="0 0 289 113"><defs><style>.a{fill:#fff;}</style></defs><path class="a" d="M32.51,56.48,2.82,6.22H62.13Z"/><rect class="a" x="64.47" y="6.29" width="24.39" height="46.91"/><path class="a" d="M136.52,25.38a18.79,18.79,0,0,1-7.31,15l6.9,12.93H94.9v-47h22.52A19.09,19.09,0,0,1,136.52,25.38Z"/><path class="a" d="M167,3l29.62,50.2H137.39Z"/><path class="a" d="M134.11,87.45v23.46H97.65V64h23.46V87.45Z"/><path class="a" d="M165.67,60.71l29.63,50.2H136.05Z"/><polygon class="a" points="222.77 110.97 199.32 110.97 199.32 87.52 189.6 87.52 189.6 63.99 231.89 63.99 231.89 87.52 222.77 87.52 222.77 110.97"/><path class="a" d="M256.08,60.71l29.62,50.2H226.46Z"/></svg>