<svg xmlns="http://www.w3.org/2000/svg" viewBox="0 0 306.89 333.27"><defs><style>.a{isolation:isolate;}.b,.c{fill:#fff;}.c{mix-blend-mode:multiply;}</style></defs><g class="a"><path class="b" d="M62.44,284.86l5.37,1.49c-.28-3.22-.57-6.45-.85-9.67A15.49,15.49,0,0,1,75,278.35q.54-2.78,1.07-5.55L82.36,274l5.79-16a4.39,4.39,0,0,1,1.95-2.77c1.06-.47,2.64.54,2.17,1.6l-.9-10.7,4.49.75a35.42,35.42,0,0,1,3.65-17.41l4,.48c.6-1.59,1.21-3.17,1.82-4.76l4.06,1.74c.17-2.08.4-4.34,1.81-5.88s4.46-1.66,5.28.27A20.66,20.66,0,0,1,122,206.81l3.06,2.58a44.81,44.81,0,0,1,9.23-18.63l6,5a58.94,58.94,0,0,1-.42-15.64l4.63,2.4a44.72,44.72,0,0,0-3.05-11,7.6,7.6,0,0,1,4.62-.18q-.89-5.23-1.75-10.45a10.58,10.58,0,0,1,6,1l-.57-6.34a7.12,7.12,0,0,1,4.64,1.14c1.27-3.75,2.62-7.64,5.41-10.44s7.48-4.15,10.78-2a14.14,14.14,0,0,1,8.86-12.48,92.24,92.24,0,0,0,17.68-30.13l4.19.91c-.62-1.71-1.25-3.57-.72-5.31s2.8-3,4.23-1.9c.28-1.72.55-3.43.82-5.15l5.31-7.48,1.32-7.75,6.87,2a21.07,21.07,0,0,1,2.79-13.55l5.42,1.8C225.56,62,230,57.88,233,59.83a9.49,9.49,0,0,1,6.86-11.49c-.24-2.48-.49-5-.73-7.43a12.07,12.07,0,0,1,6,3.51A18.75,18.75,0,0,1,247,32L254,39q1.57-4.85,3.14-9.67a5.84,5.84,0,0,1,2.37,3.54A97.18,97.18,0,0,1,285.76,7.29a263,263,0,0,0-17,32.21l7.68-5.45a24.49,24.49,0,0,0-8.3,18.85l-5.75-.29a5.74,5.74,0,0,1-4.06,6.12L254.2,75.84a3.59,3.59,0,0,1-3.47-.34l-1,6-6.38.1c.64,2.12,1.13,4.49.13,6.47s-4.1,2.88-5.42,1.11a11.55,11.55,0,0,0-.87,7.84c-9.59,1.43-17.25,11-16.57,20.63-4.21-.93-8.64,3.41-7.79,7.63l-7.3-3.11q.48,8.37,1,16.75L201,136.52l-1.84,13.83c-7.84-3.79-13.53,14.79-21.35,10.94,1.61,5.42-1.43,11-4.35,15.87L165.06,191c-1.37,2.27-3,4.74-5.56,5.41a43.14,43.14,0,0,0-10,22.93l-5.64-7.75c-4.2,4.08-4.83,10.49-5.21,16.33q-.53,8.06-1,16.1l-8-11a85.57,85.57,0,0,1-16.53,33.46c-2.59,3.21-5.62,7-4.59,11l-7.83-2q-1.78,7.71-3.55,15.43l-4-3.82c-.59,1.71-1.17,3.42-1.76,5.14a8,8,0,0,0-8.17-1.95L82,297.85a6.83,6.83,0,0,1-3.3-2.2c-8.24,7.91-22.45,23.74-33.8,25.92C45.73,318.19,67.67,286.31,62.44,284.86Z"/><path class="b" d="M142.93,287.8q1.31,1.95,2.62,3.89,1.09-5.82,2.2-11.64c-.34,1.67,2.5,2.35,3.6,1.05s.85-3.24.55-4.92l3,2.26,1.5-3.26c2.47.08,3.56-2.94,4.76-5.09s5.17-3.28,5.52-.84c2.25-6.37,4.63-13,9.35-17.78,3.43-3.52,8.19-6.27,9.51-11a5.28,5.28,0,0,1,1.07-2.53c.67-.64,2.1-.47,2.19.46A23.32,23.32,0,0,1,193.44,223l3.25,4a29.47,29.47,0,0,1,4.74-11l2.29,3.18,8-15.4c.35,1.18.71,2.36,1.06,3.54a42.21,42.21,0,0,0,5.65-13.58,8.91,8.91,0,0,0,6.31,2.3,23,23,0,0,1,1.65-7.59l4.8,2.51a15.86,15.86,0,0,1,.48-8.87l8.61,2a18.48,18.48,0,0,1-.17-9.87l11.76,6.74q-1.38-6.46-2.75-12.92a12.33,12.33,0,0,0,5.15,1.58,62.33,62.33,0,0,1-1.69-14.13,5.09,5.09,0,0,0,5.28-4.17l3.22,1.31a19.59,19.59,0,0,1-1-9.36l5.84,3a14.06,14.06,0,0,1,.82-12.34l5.15.78.43-6,6.72-1a5.82,5.82,0,0,1,1.22-3.63l3.94,2.24A248.7,248.7,0,0,1,302.45,108l-8.19,24.56a10.51,10.51,0,0,1-2.52,4.68c-1.34,1.19-3.64,1.51-4.85.18a7.5,7.5,0,0,1-2.69,9.12q-.52,3.51-1.06,7a4.3,4.3,0,0,1-3.34-.46,23.67,23.67,0,0,1,1.06,7.19c-2.31-.09-3.82,2.33-4.83,4.42l-10.09,21c-.76,1.58-2.5,3.44-3.9,2.38l-7.22,16.34c.33-1.65-2.23-2.24-3.78-1.57s-3.32,1.79-4.73.87q-1.53,2.53-3.07,5.06l-3.15-3.43q-5.33,9.74-10.63,19.49a28.75,28.75,0,0,0-2.68-4.2,28.12,28.12,0,0,0-10.65,17.92,10.2,10.2,0,0,1-2.36-6.83,38.21,38.21,0,0,1-6.87,18.85,10.18,10.18,0,0,1-3.12-4.81,54.27,54.27,0,0,1-3.5,15.08,15.07,15.07,0,0,0-9.05-3.69,17.38,17.38,0,0,1-2.95,16.73q-1.47,5.64-2.93,11.29a18.86,18.86,0,0,1-3.82-5.84,14.48,14.48,0,0,1-1.74,8.89l-5.4-6.05A7.77,7.77,0,0,1,168.7,289q-1.81,5.23-3.61,10.48l-4.6-5.19a12.54,12.54,0,0,1-2.2,5.57c-1.29,1.55-3.69,2.38-5.38,1.29q-1.71,4.88-3.43,9.74c-1.07-1.16-2.14-2.33-3.22-3.49a9.08,9.08,0,0,0-4.3,5.68c-2.55-1.52-5.61.82-7.65,3l-14.9,15.82a78.51,78.51,0,0,1,7.93-15.17h-5.88C130.49,308.89,135.37,297.07,142.93,287.8Z"/><path class="b" d="M41.15,224.54a23.19,23.19,0,0,0,4.61-12.3,3.58,3.58,0,0,1,2.9.61,33.5,33.5,0,0,1,.89-12.37l4.26,1.79a6.92,6.92,0,0,1,0-3.88,3.34,3.34,0,0,0,4.58-2.83L62,196.84a89,89,0,0,1,7.19-31.32l2.07,3.17c-2.39-4.45,1.59-9.53,5.26-13,.57-.55,1.78-.93,1.92-.14l8.94-20.19a4.26,4.26,0,0,1,2.42,3,18.79,18.79,0,0,1,6.59-13.22,4,4,0,0,1,5-.45,31.25,31.25,0,0,1,7.11-14.25c0-1.06.06-2.12.1-3.18l4.53-.41c.28-1.5.56-3,.83-4.5a28.23,28.23,0,0,0,10.13,3.39L121.08,91.3l3.52.62c-.52-1.56-1-3.12-1.55-4.67l4.59.87a24.52,24.52,0,0,1,1.91-14.5l5.69,2.16c-.3-2.08-.59-4.16-.89-6.23l4,.63L137.45,64l5.78-1.65a9.69,9.69,0,0,1,4.56-8.85c1.78-1.07,3.84-1.52,5.74-2.35a16,16,0,0,0,9.32-12.83l3.93.85c4.68-6,10.88-10.6,17-15.12l29-21.4a196.64,196.64,0,0,0-13.49,27.73L197,27.49a30.87,30.87,0,0,0-7.33,12.37c-.62-2.31-4.17-.12-4.74,2.21s-2.15,5.61-4.24,4.45l.06,4.58a16.34,16.34,0,0,0-11.21,12c-.58-1.52-3.14-.48-3.47,1.12s.46,3.23.37,4.86A4.84,4.84,0,0,1,159.73,73c-.12,1.49-.23,3-.35,4.48a6.75,6.75,0,0,0-4.19,1.44,5.38,5.38,0,0,1,.1,4,21.24,21.24,0,0,0-8,3.32c1.54,4.72-2.45,10.36-7.41,10.47.34,2.21.69,4.43,1,6.64l-3.89,2.1c1.07,3,.46,8-2.61,7.22q1,5.46,1.91,10.94a26.47,26.47,0,0,0-10.1-1.91c0,2.29,0,4.57,0,6.86l-4.34-.11c.07,1.84.15,3.68.23,5.51a16.25,16.25,0,0,0-5.78,5c-3.87,5.45-4.32,13.18-9.41,17.51-2.4,2-5.54,3-8,5s-3.88,5.92-1.77,8.25c-5.58,1.05-6.09,8.78-5.21,14.39-1.46-1.47-2.91-3-4.37-4.43a36.37,36.37,0,0,0-2.52,8.47l-3.56-1.55L70.2,211.28A6.82,6.82,0,0,1,68.34,214c-1.15.86-2.73.93-3.9,1.75-1.91,1.33-2.07,4-2.56,6.31s-2.38,4.86-4.6,4.15c2.07,1.85.84,5.47-1.38,7.12s-5.09,2.17-7.48,3.58c-6.35,3.75-7.73,12.51-13.14,17.53C38.09,251.86,41.08,228.87,41.15,224.54Z"/><path class="b" d="M11.07,152.59c.39-1.53.86-3.16,2.1-4.12s3.5-.68,3.89.85a91.49,91.49,0,0,1,5.72-14.7c.59-1.21,2.09-2.59,3-1.62a57.25,57.25,0,0,1,11.25-21.84A192.55,192.55,0,0,1,48.25,93.68l1.4,2.4C55.33,83,71,75.6,74.69,61.79a5.08,5.08,0,0,1,4.39.72l-.28-4.16,3.57-.76c-.34-1.64-.69-3.28-1-4.93A18.84,18.84,0,0,1,87.27,52c0-1.22,0-2.43,0-3.64A14.25,14.25,0,0,1,92,49.43l-.75-4a3.49,3.49,0,0,1,3.26-.65c-.07-2,.06-4.21,1.22-5.88s3.68-2.54,5.31-1.31c-.3-3.27,3.77-6,6.69-4.54a1.54,1.54,0,0,1,2.47-.44q14.61-10.69,29.21-21.4a103.61,103.61,0,0,0-20.59,27.87c-.33-.78-.66-1.55-1-2.33l.75,4a8.11,8.11,0,0,1-3.76-3.11,12.36,12.36,0,0,0-2.32,7.55l-3.09-.75A6.45,6.45,0,0,1,104,51a42.46,42.46,0,0,1-3,9.64A11.21,11.21,0,0,0,96,57.68c-1.89-.37-4.18.59-4.58,2.47-.2.93.08,1.93-.19,2.85s-1.63,1.56-2.14.76a4.29,4.29,0,0,1,.49,3.1c-.36,1-2,1.51-2.5.57a13.88,13.88,0,0,0,2,5.69l-3.49-.7A2,2,0,0,1,83.08,75l.51,3.65-4,.44a10.36,10.36,0,0,0,.46,4.49,10,10,0,0,1-4-.14l1.83,4.28-3.15-.51c-2,1.48-2,4.37-2.66,6.77s-3.23,4.93-5.27,3.51c0,1.43-.09,2.86-.14,4.29-1.7-.08-3.09,1.29-4.24,2.55L52.27,115.51a8.27,8.27,0,0,0-2.5,5.61l-3-1a19.37,19.37,0,0,0-1.86,9L42.55,127a30.22,30.22,0,0,1,1.12,7.91,10.83,10.83,0,0,0-6.33-4,19.16,19.16,0,0,0,2.37,7l-4.16-.84c.73,1.75.67,4.7-1.22,4.53l1.45,2.49-2.32.18-2.4,5.84-6.24,6.32c-2.24.75-3,3.45-4.24,5.47s-4.61,3.37-5.69,1.26A132,132,0,0,1,3.21,189.69c1-1.65.18-6.55.72-8.72.63-2.53,1.62-4.95,2.24-7.49C7.88,166.55,9.3,159.52,11.07,152.59Z"/><path class="c" d="M41.15,224.54a23.19,23.19,0,0,0,4.61-12.3,3.58,3.58,0,0,1,2.9.61,33.5,33.5,0,0,1,.89-12.37l4.26,1.79a6.92,6.92,0,0,1,0-3.88,3.34,3.34,0,0,0,4.58-2.83L62,196.84a89,89,0,0,1,7.19-31.32l2.07,3.17c-2.39-4.45,1.59-9.53,5.26-13,.57-.55,1.78-.93,1.92-.14l8.94-20.19a4.26,4.26,0,0,1,2.42,3,18.79,18.79,0,0,1,6.59-13.22,4,4,0,0,1,5-.45,31.25,31.25,0,0,1,7.11-14.25c0-1.06.06-2.12.1-3.18l4.53-.41c.28-1.5.56-3,.83-4.5a28.23,28.23,0,0,0,10.13,3.39L121.08,91.3l3.52.62c-.52-1.56-1-3.12-1.55-4.67l4.59.87a24.52,24.52,0,0,1,1.91-14.5l5.69,2.16c-.3-2.08-.59-4.16-.89-6.23l4,.63L137.45,64l5.78-1.65a9.69,9.69,0,0,1,4.56-8.85c1.78-1.07,3.84-1.52,5.74-2.35a16,16,0,0,0,9.32-12.83l3.93.85c4.68-6,10.88-10.6,17-15.12l29-21.4a196.64,196.64,0,0,0-13.49,27.73L197,27.49a30.87,30.87,0,0,0-7.33,12.37c-.62-2.31-4.17-.12-4.74,2.21s-2.15,5.61-4.24,4.45l.06,4.58a16.34,16.34,0,0,0-11.21,12c-.58-1.52-3.14-.48-3.47,1.12s.46,3.23.37,4.86A4.84,4.84,0,0,1,159.73,73c-.12,1.49-.23,3-.35,4.48a6.75,6.75,0,0,0-4.19,1.44,5.38,5.38,0,0,1,.1,4,21.24,21.24,0,0,0-8,3.32c1.54,4.72-2.45,10.36-7.41,10.47.34,2.21.69,4.43,1,6.64l-3.89,2.1c1.07,3,.46,8-2.61,7.22q1,5.46,1.91,10.94a26.47,26.47,0,0,0-10.1-1.91c0,2.29,0,4.57,0,6.86l-4.34-.11c.07,1.84.15,3.68.23,5.51a16.25,16.25,0,0,0-5.78,5c-3.87,5.45-4.32,13.18-9.41,17.51-2.4,2-5.54,3-8,5s-3.88,5.92-1.77,8.25c-5.58,1.05-6.09,8.78-5.21,14.39-1.46-1.47-2.91-3-4.37-4.43a36.37,36.37,0,0,0-2.52,8.47l-3.56-1.55L70.2,211.28A6.82,6.82,0,0,1,68.34,214c-1.15.86-2.73.93-3.9,1.75-1.91,1.33-2.07,4-2.56,6.31s-2.38,4.86-4.6,4.15c2.07,1.85.84,5.47-1.38,7.12s-5.09,2.17-7.48,3.58c-6.35,3.75-7.73,12.51-13.14,17.53C38.09,251.86,41.08,228.87,41.15,224.54Z"/><path class="b" d="M212.82,2.66a196.64,196.64,0,0,0-13.49,27.73L197,27.49a30.87,30.87,0,0,0-7.33,12.37,1.18,1.18,0,0,0-1.19-1c-1.3,0-3.15,1.56-3.55,3.19-.49,2-1.72,4.69-3.38,4.69a1.84,1.84,0,0,1-.86-.24l.06,4.58a16.34,16.34,0,0,0-11.21,12,1.13,1.13,0,0,0-1.13-.74A2.57,2.57,0,0,0,166,64.27c-.32,1.6.46,3.23.37,4.86a4.89,4.89,0,0,1-4.87,4.29,4,4,0,0,1-1.79-.41c-.12,1.49-.23,3-.35,4.48h0a6.76,6.76,0,0,0-4.14,1.44,5.38,5.38,0,0,1,.1,4,21.24,21.24,0,0,0-8,3.32c1.54,4.72-2.45,10.36-7.41,10.47.34,2.21.69,4.43,1,6.64l-3.89,2.1c1,2.77.54,7.3-2,7.3a2.86,2.86,0,0,1-.63-.08q1,5.46,1.91,10.94a26.35,26.35,0,0,0-9.84-1.91h-.26c0,2.29,0,4.57,0,6.86l-4.34-.11c.07,1.84.15,3.68.23,5.51a16.25,16.25,0,0,0-5.78,5c-3.87,5.45-4.32,13.18-9.41,17.51-2.4,2-5.54,3-8,5s-3.88,5.92-1.77,8.25c-5.58,1.05-6.09,8.78-5.21,14.39-1.46-1.47-2.91-3-4.37-4.43a36.37,36.37,0,0,0-2.52,8.47l-3.56-1.55L70.2,211.28A6.82,6.82,0,0,1,68.34,214c-1.15.86-2.73.93-3.9,1.75-1.91,1.33-2.07,4-2.56,6.31-.45,2-2,4.27-3.86,4.27a2.43,2.43,0,0,1-.74-.12c2.07,1.85.84,5.47-1.38,7.12s-5.09,2.17-7.48,3.58c-6.35,3.75-7.73,12.51-13.14,17.53,2.81-2.6,5.8-25.59,5.87-29.92a23.19,23.19,0,0,0,4.61-12.3,3.29,3.29,0,0,1,.76-.09,3.58,3.58,0,0,1,2.14.7,33.5,33.5,0,0,1,.89-12.37l4.26,1.79a6.92,6.92,0,0,1,0-3.88,2.75,2.75,0,0,0,1.21.28,3.37,3.37,0,0,0,3.37-3.11L62,196.84a89,89,0,0,1,7.19-31.32l2.07,3.17c-2.39-4.45,1.59-9.53,5.25-13a2.2,2.2,0,0,1,1.34-.59.53.53,0,0,1,.59.45l8.94-20.19a4.26,4.26,0,0,1,2.42,3,18.79,18.79,0,0,1,6.59-13.22,3.93,3.93,0,0,1,2.81-1.14,3.77,3.77,0,0,1,2.23.69,31.25,31.25,0,0,1,7.11-14.25l.1-3.18,4.53-.41c.28-1.5.56-3,.83-4.5a28.23,28.23,0,0,0,10.13,3.39L121.08,91.3l3.52.62c-.52-1.56-1-3.12-1.55-4.67l4.59.87a24.52,24.52,0,0,1,1.91-14.5l5.69,2.16c-.3-2.08-.59-4.16-.89-6.23l4,.63L137.45,64l5.78-1.65a9.69,9.69,0,0,1,4.56-8.85c1.78-1.07,3.84-1.52,5.74-2.35a16,16,0,0,0,9.32-12.83l3.93.85c4.68-6,10.88-10.6,17-15.12l29-21.4m-.62-.84-7.76,5.73L183.18,23.23c-5.94,4.37-12.07,8.9-16.81,14.8l-3.3-.71-1.14-.25-.11,1.16a15.05,15.05,0,0,1-8.7,12c-.68.3-1.38.54-2.13.8a20.21,20.21,0,0,0-3.73,1.61,10.77,10.77,0,0,0-5.09,9l-5,1.43-.87.25.14.9.39,2.62.33,2.15-2.64-.42-1.38-.21.2,1.38.16,1.13.48,3.37-4.05-1.54-.9-.34-.4.87a25.46,25.46,0,0,0-2.21,13.65l-3.16-.6-1.73-.33.55,1.67,1,3H123l-1.76-.31-1.5-.26.31,1.49,2.76,13a27.5,27.5,0,0,1-8.3-3l-1.26-.71-.26,1.42-.69,3.73-3.76.34-.91.08,0,.92v.1l-.09,2.71a32.27,32.27,0,0,0-6.8,13.15,5.07,5.07,0,0,0-1.51-.23,5,5,0,0,0-3.51,1.42,19.93,19.93,0,0,0-6.51,10.89,5.05,5.05,0,0,0-1.38-.9l-.94-.42-.42.94-2.75,6.2L78,154.07h-.12a3.22,3.22,0,0,0-2,.88c-3.54,3.35-5.6,6.52-6.15,9.39l-.64-1-.77,1.77A89.85,89.85,0,0,0,61,195.41l-.51-.18-1.82-.65-1.38-.48v1.46A2.38,2.38,0,0,1,55,197.64a1.72,1.72,0,0,1-.75-.17l-1.1-.55-.35,1.19a8,8,0,0,0-.3,2.48l-1.8-.75-.74-.31-1.09-.46-.31,1.15a34.58,34.58,0,0,0-1.08,11,4.32,4.32,0,0,0-.95-.1,4.12,4.12,0,0,0-1,.11l-.75.17-.05.76a22.22,22.22,0,0,1-4.4,11.76l-.2.27v.33c-.08,4.77-3.21,27-5.54,29.18l.7.76.71.76c2.5-2.33,4.16-5.38,5.77-8.33,2-3.66,3.88-7.12,7.19-9.07a21.77,21.77,0,0,1,3.16-1.43,18.78,18.78,0,0,0,4.41-2.21A7.21,7.21,0,0,0,59.37,229a4.81,4.81,0,0,0-.25-1.76c1.9-.64,3.31-2.83,3.77-4.91.09-.41.16-.83.24-1.25.35-1.84.67-3.57,1.9-4.43a6.87,6.87,0,0,1,1.64-.71A7.72,7.72,0,0,0,69,214.85a7.73,7.73,0,0,0,2.18-3.13l5.68-12.29,5.26-11.38.85.37,1.78.77,1.21.53.23-1.3a35.66,35.66,0,0,1,1.86-6.8l1.09,1.11,2.18,2.21,2.25,2.28L93,184.05c-.87-5.55-.24-12.34,4.38-13.21l1.82-.34L98,169.13a3,3,0,0,1-.74-2.36,6.75,6.75,0,0,1,2.4-4.41,23,23,0,0,1,3.77-2.37,24.34,24.34,0,0,0,4.19-2.68c3.16-2.69,4.63-6.55,6-10.29a33.06,33.06,0,0,1,3.53-7.41,15.3,15.3,0,0,1,5.41-4.7l.59-.3,0-.66-.18-4.41,3.23.08,1.07,0v-1.07l0-5.8a25.45,25.45,0,0,1,8.67,1.82l1.73.69-.32-1.83-1-5.47-.74-4.23a3,3,0,0,0,1.87-1.29c1.13-1.6,1.25-4.36.74-6.48l.49-.26,2.66-1.44.65-.35-.12-.72-.87-5.56a9.18,9.18,0,0,0,5.8-3.83,9.09,9.09,0,0,0,1.62-7.1,20,20,0,0,1,7-2.76l.57-.11.2-.54a6.41,6.41,0,0,0,.18-4,5.69,5.69,0,0,1,2.9-.81h1l.12-1,.11-1.41.14-1.77a6.11,6.11,0,0,0,.86.07,5.91,5.91,0,0,0,5.91-5.28,10.37,10.37,0,0,0-.24-2.39,6.18,6.18,0,0,1-.15-2.31,1.56,1.56,0,0,1,1.32-1c.13,0,.14,0,.16.08l1.26,3.28.72-3.43A15.28,15.28,0,0,1,181,52.1l.76-.22,0-.79,0-3.3c2.76-.19,4-4.58,4.19-5.48a3.62,3.62,0,0,1,2.55-2.4c.1,0,.13,0,.19.22l.92,3.48,1.07-3.44a29.73,29.73,0,0,1,6.29-11.11l.44.54L198.53,31l1.11,1.37.65-1.64A196.27,196.27,0,0,1,213.71,3.18L212.2,1.82Z"/><path class="c" d="M11.07,152.59c.39-1.53.86-3.16,2.1-4.12s3.5-.68,3.89.85a91.49,91.49,0,0,1,5.72-14.7c.59-1.21,2.09-2.59,3-1.62a57.25,57.25,0,0,1,11.25-21.84A192.55,192.55,0,0,1,48.25,93.68l1.4,2.4C55.33,83,71,75.6,74.69,61.79a5.08,5.08,0,0,1,4.39.72l-.28-4.16,3.57-.76c-.34-1.64-.69-3.28-1-4.93A18.84,18.84,0,0,1,87.27,52c0-1.22,0-2.43,0-3.64A14.25,14.25,0,0,1,92,49.43l-.75-4a3.49,3.49,0,0,1,3.26-.65c-.07-2,.06-4.21,1.22-5.88s3.68-2.54,5.31-1.31c-.3-3.27,3.77-6,6.69-4.54a1.54,1.54,0,0,1,2.47-.44q14.61-10.69,29.21-21.4a103.61,103.61,0,0,0-20.59,27.87c-.33-.78-.66-1.55-1-2.33l.75,4a8.11,8.11,0,0,1-3.76-3.11,12.36,12.36,0,0,0-2.32,7.55l-3.09-.75A6.45,6.45,0,0,1,104,51a42.46,42.46,0,0,1-3,9.64A11.21,11.21,0,0,0,96,57.68c-1.89-.37-4.18.59-4.58,2.47-.2.93.08,1.93-.19,2.85s-1.63,1.56-2.14.76a4.29,4.29,0,0,1,.49,3.1c-.36,1-2,1.51-2.5.57a13.88,13.88,0,0,0,2,5.69l-3.49-.7A2,2,0,0,1,83.08,75l.51,3.65-4,.44a10.36,10.36,0,0,0,.46,4.49,10,10,0,0,1-4-.14l1.83,4.28-3.15-.51c-2,1.48-2,4.37-2.66,6.77s-3.23,4.93-5.27,3.51c0,1.43-.09,2.86-.14,4.29-1.7-.08-3.09,1.29-4.24,2.55L52.27,115.51a8.27,8.27,0,0,0-2.5,5.61l-3-1a19.37,19.37,0,0,0-1.86,9L42.55,127a30.22,30.22,0,0,1,1.12,7.91,10.83,10.83,0,0,0-6.33-4,19.16,19.16,0,0,0,2.37,7l-4.16-.84c.73,1.75.67,4.7-1.22,4.53l1.45,2.49-2.32.18-2.4,5.84-6.24,6.32c-2.24.75-3,3.45-4.24,5.47s-4.61,3.37-5.69,1.26A132,132,0,0,1,3.21,189.69c1-1.65.18-6.55.72-8.72.63-2.53,1.62-4.95,2.24-7.49C7.88,166.55,9.3,159.52,11.07,152.59Z"/><path class="b" d="M139.45,11.18a103.61,103.61,0,0,0-20.59,27.87c-.33-.78-.66-1.55-1-2.33l.75,4a8.11,8.11,0,0,1-3.76-3.11,12.36,12.36,0,0,0-2.32,7.55l-3.09-.75A6.45,6.45,0,0,1,104,51a42.46,42.46,0,0,1-3,9.64A11.21,11.21,0,0,0,96,57.68a3.68,3.68,0,0,0-.82-.08c-1.68,0-3.42.93-3.76,2.55-.2.93.08,1.93-.19,2.85a1.67,1.67,0,0,1-1.46,1.12.78.78,0,0,1-.68-.36,4.29,4.29,0,0,1,.49,3.1A1.75,1.75,0,0,1,88,67.93a1,1,0,0,1-.92-.5,13.88,13.88,0,0,0,2,5.69l-3.49-.7a2,2,0,0,1-1.86,2.71,1.44,1.44,0,0,1-.63-.14l.51,3.65-4,.44a10.36,10.36,0,0,0,.46,4.49,9.34,9.34,0,0,1-1.67.15,9.9,9.9,0,0,1-2.36-.29l1.83,4.28-3.15-.51c-2,1.48-2,4.37-2.66,6.77-.5,1.93-2.26,3.92-4,3.92a2.26,2.26,0,0,1-1.28-.41c0,1.43-.09,2.86-.14,4.29h-.14c-1.64,0-3,1.32-4.1,2.55L52.27,115.51a8.27,8.27,0,0,0-2.5,5.61l-3-1a19.37,19.37,0,0,0-1.86,9L42.55,127a30.22,30.22,0,0,1,1.12,7.91,10.83,10.83,0,0,0-6.33-4,19.16,19.16,0,0,0,2.37,7l-4.16-.84c.71,1.7.67,4.54-1.07,4.54h-.15l1.45,2.49-2.32.18-2.4,5.84-6.24,6.32c-2.24.75-3,3.45-4.24,5.47a5,5,0,0,1-3.86,2.32,1.93,1.93,0,0,1-1.83-1.06A132,132,0,0,1,3.21,189.69c1-1.65.18-6.55.72-8.72.63-2.53,1.62-4.95,2.24-7.49,1.71-6.93,3.13-14,4.9-20.89.39-1.53.86-3.16,2.1-4.12a2.86,2.86,0,0,1,1.73-.56,2.08,2.08,0,0,1,2.16,1.41,91.49,91.49,0,0,1,5.72-14.7c.45-.92,1.43-1.94,2.29-1.94a1,1,0,0,1,.74.32,57.25,57.25,0,0,1,11.25-21.84A192.55,192.55,0,0,1,48.25,93.68l1.4,2.4C55.33,83,71,75.6,74.69,61.79a4.7,4.7,0,0,1,1.44-.22,5.1,5.1,0,0,1,3,.94c-.09-1.38-.19-2.77-.28-4.16l3.57-.76c-.34-1.64-.69-3.28-1-4.93a19.18,19.18,0,0,1,5.22-.73l.71,0c0-1.22,0-2.43,0-3.64A14.25,14.25,0,0,1,92,49.43l-.75-4a3.46,3.46,0,0,1,2.24-.81,3.2,3.2,0,0,1,1,.16c-.07-2,.06-4.21,1.22-5.88A4.45,4.45,0,0,1,99.28,37a3,3,0,0,1,1.8.58c-.24-2.65,2.37-5,4.93-5a3.79,3.79,0,0,1,1.76.41,1.51,1.51,0,0,1,1.42-.88,1.37,1.37,0,0,1,1,.44q14.61-10.69,29.21-21.4m-.61-.83-28.62,21a2.5,2.5,0,0,0-1-.22,2.62,2.62,0,0,0-1.77.67,5.11,5.11,0,0,0-1.41-.2,6.26,6.26,0,0,0-4.52,2.06A5.74,5.74,0,0,0,100.17,36a3.68,3.68,0,0,0-.89-.1,5.48,5.48,0,0,0-4.36,2.34,9.33,9.33,0,0,0-1.42,5.28,4.51,4.51,0,0,0-2.88,1l-.46.39.11.59.38,2,0,.25a15.6,15.6,0,0,0-3.41-.58l-1.1-.06v1.11l0,1.82v.76a20,20,0,0,0-5.16.77l-.93.26.2.94.82,3.92-2.57.55-.87.19.06.89.16,2.39a6.09,6.09,0,0,0-1.8-.27,6,6,0,0,0-1.74.26l-.55.17-.15.55C71.78,68.71,66.53,74.06,61,79.71,56.72,84,52.35,88.48,49.55,93.87l-.41-.71-.8-1.38-.93,1.3a192.81,192.81,0,0,0-11.2,17.49,58.27,58.27,0,0,0-11.1,21.07h0c-1.36,0-2.62,1.31-3.22,2.53a92,92,0,0,0-5.25,13.1,3.8,3.8,0,0,0-1.7-.39,3.84,3.84,0,0,0-2.36.77c-1.47,1.13-2,2.86-2.47,4.68-1,3.77-1.83,7.61-2.67,11.33-.71,3.15-1.45,6.4-2.23,9.58-.31,1.24-.71,2.49-1.11,3.69s-.81,2.5-1.13,3.79a18.22,18.22,0,0,0-.24,4.11c0,1.62,0,3.65-.37,4.34l.89.52.9.51A133.61,133.61,0,0,0,15.39,165a3.4,3.4,0,0,0,1.33.27,6.11,6.11,0,0,0,4.74-2.82c.32-.53.61-1.1.89-1.65.78-1.52,1.51-3,2.8-3.38l.24-.08.17-.17,6.23-6.32.15-.15.07-.18,1.21-2.93,1-2.33,1.69-.13L37.5,145l-.83-1.42L36,142.33l-.08-.13a2.63,2.63,0,0,0,.56-.59,4.77,4.77,0,0,0,.53-3.19l.68.14,1.87.37,2.24.45-1.14-2a18.12,18.12,0,0,1-2-5,9.83,9.83,0,0,1,4.19,3.12L44.73,138l0-3.08a31.22,31.22,0,0,0-.42-4.92l1.74,1.6-.09-2.47a18.45,18.45,0,0,1,1.4-7.69l2.12.68,1.3.42,0-1.37A7.23,7.23,0,0,1,53,116.26l0,0,0,0,5.08-5.6L63.19,105c1-1.07,2.12-2.22,3.33-2.22h.09l1,0,0-1,.1-2.89h.29c2.34,0,4.41-2.43,5-4.69.15-.59.27-1.2.39-1.79.31-1.64.62-3.2,1.57-4.14l2.68.43,1.85.29-.73-1.72-1-2.42-.06-.15.68,0a10.24,10.24,0,0,0,1.84-.16l1.19-.2-.38-1.14A9.37,9.37,0,0,1,80.58,80l2.56-.28.56-.06,1.06-.12-.15-1-.33-2.4a3.29,3.29,0,0,0,2-1.48,3.45,3.45,0,0,0,.38-.92l2.16.44,2.32.46-1.24-2a13.18,13.18,0,0,1-1.52-3.65,2.79,2.79,0,0,0,2.17-1.71A3.87,3.87,0,0,0,90.65,65a2.72,2.72,0,0,0,1.6-1.7,5.67,5.67,0,0,0,.16-1.84,4.66,4.66,0,0,1,0-1.08c.24-1.13,1.6-1.74,2.75-1.74a3.21,3.21,0,0,1,.63.06c1.67.32,3.13,1.58,4.43,2.68l1,.9.56-1.26a43.23,43.23,0,0,0,3-9.17,7.51,7.51,0,0,0,5.6-6.1l1.88.46,1.32.32,0-1.36A11.28,11.28,0,0,1,115,39.44a9.16,9.16,0,0,0,3.29,2.27l1.75.7-.35-1.85-.11-.57.24-.47a102,102,0,0,1,20.39-27.59l-1.33-1.58Z"/><path class="c" d="M62.43,284.86l5.37,1.49q-.43-4.83-.86-9.66a15.39,15.39,0,0,1,8,1.66l1.08-5.55L82.35,274q2.88-8,5.78-16a4.46,4.46,0,0,1,2-2.77c1.06-.47,2.65.54,2.17,1.61l-.9-10.71,4.5.75a35.2,35.2,0,0,1,3.65-17.41l4,.48,1.82-4.76,4.06,1.74c.17-2.08.4-4.34,1.82-5.88s4.45-1.66,5.27.27a20.7,20.7,0,0,1,5.42-14.48l3.06,2.58a45.17,45.17,0,0,1,9.23-18.63l6,5a58.52,58.52,0,0,1-.43-15.64l4.64,2.4a45.53,45.53,0,0,0-3.05-11,7.49,7.49,0,0,1,4.61-.19q-.87-5.22-1.75-10.45a10.48,10.48,0,0,1,6,1l-.57-6.35a7.15,7.15,0,0,1,4.65,1.14c1.26-3.75,2.61-7.64,5.4-10.44s7.48-4.15,10.78-2a14.13,14.13,0,0,1,8.87-12.48A92.28,92.28,0,0,0,197,101.62l4.2.91c-.63-1.71-1.26-3.57-.73-5.31s2.8-3,4.23-1.9c.28-1.71.55-3.43.83-5.15l5.3-7.48,1.32-7.75,6.88,2a21,21,0,0,1,2.78-13.56l5.42,1.8c-1.72-3.13,2.75-7.3,5.76-5.35a9.48,9.48,0,0,1,6.85-11.49c-.24-2.48-.49-5-.73-7.43a12,12,0,0,1,6,3.52A18.8,18.8,0,0,1,246.93,32L254,39q1.58-4.85,3.14-9.67a5.79,5.79,0,0,1,2.37,3.55A97.1,97.1,0,0,1,285.75,7.29a262.42,262.42,0,0,0-17,32.22l7.68-5.46a24.54,24.54,0,0,0-8.3,18.85l-5.75-.28a5.74,5.74,0,0,1-4.06,6.11l-4.17,17.11a3.57,3.57,0,0,1-3.46-.34q-.51,3-1,6.06l-6.38.1c.64,2.11,1.13,4.48.14,6.46s-4.11,2.88-5.43,1.11a11.49,11.49,0,0,0-.86,7.84c-9.6,1.43-17.26,11-16.58,20.64-4.21-.94-8.64,3.4-7.79,7.62l-7.3-3.11q.49,8.39,1,16.76L201,136.52l-1.84,13.83c-7.84-3.79-13.53,14.79-21.35,10.94,1.61,5.42-1.42,11-4.35,15.87L165,191c-1.37,2.28-3,4.74-5.56,5.41a43.25,43.25,0,0,0-10,22.93l-5.64-7.75c-4.19,4.08-4.83,10.49-5.21,16.33q-.51,8.06-1,16.1-4-5.5-8-11a85.59,85.59,0,0,1-16.54,33.46c-2.59,3.21-5.61,7-4.58,11l-7.84-2q-1.77,7.73-3.55,15.43l-4.05-3.82c-.59,1.71-1.17,3.43-1.76,5.14a8,8,0,0,0-8.17-1.95L82,297.85a6.87,6.87,0,0,1-3.3-2.2c-8.24,7.91-22.45,23.74-33.8,25.92C45.71,318.19,67.66,286.31,62.43,284.86Z"/><path class="b" d="M285.75,7.29a262.42,262.42,0,0,0-17,32.22l7.68-5.46a24.54,24.54,0,0,0-8.3,18.85l-5.75-.28a5.74,5.74,0,0,1-4.06,6.11l-4.17,17.11a3.45,3.45,0,0,1-1.42.3,3.53,3.53,0,0,1-2-.64q-.51,3-1,6.06l-6.38.1c.64,2.11,1.13,4.48.14,6.46a4,4,0,0,1-3.41,2.06,2.43,2.43,0,0,1-2-1,11.49,11.49,0,0,0-.86,7.84c-9.6,1.43-17.26,11-16.58,20.64a5.27,5.27,0,0,0-1.18-.13c-3.81,0-7.38,3.92-6.61,7.75l-7.3-3.11q.49,8.39,1,16.76L201,136.52l-1.84,13.83a4.89,4.89,0,0,0-2.14-.51c-6.07,0-11,12-17,12a5,5,0,0,1-2.17-.53c1.61,5.42-1.42,11-4.35,15.87L165,191c-1.37,2.28-3,4.74-5.56,5.41a43.25,43.25,0,0,0-10,22.93l-5.64-7.75c-4.2,4.08-4.83,10.49-5.21,16.33q-.51,8.06-1,16.1-4-5.5-8-11a85.59,85.59,0,0,1-16.54,33.46c-2.59,3.21-5.61,7-4.58,11l-7.84-2q-1.77,7.73-3.55,15.43l-4.05-3.82c-.59,1.71-1.17,3.43-1.76,5.14a8,8,0,0,0-5.69-2.36,7.5,7.5,0,0,0-2.48.41L82,297.85a6.87,6.87,0,0,1-3.3-2.2c-8.24,7.91-22.45,23.74-33.8,25.92.81-3.38,22.76-35.26,17.53-36.71l5.37,1.49c-.29-3.22-.57-6.44-.86-9.66.34,0,.68,0,1,0a15.49,15.49,0,0,1,7,1.7l1.08-5.55L82.35,274q2.88-8,5.78-16a4.46,4.46,0,0,1,2-2.77,1.52,1.52,0,0,1,.59-.12,1.84,1.84,0,0,1,1.5.79c0,.31.06.62.08.94a1,1,0,0,0-.08-.94c-.27-3.26-.55-6.51-.82-9.77l4.5.75a35.2,35.2,0,0,1,3.65-17.41l4,.48,1.82-4.76,4.06,1.74c.17-2.08.4-4.34,1.82-5.88a3.88,3.88,0,0,1,2.79-1.17,2.55,2.55,0,0,1,2.48,1.44,20.7,20.7,0,0,1,5.42-14.48l3.06,2.58a45.17,45.17,0,0,1,9.23-18.63l6,5a58.52,58.52,0,0,1-.43-15.64l4.64,2.4a45.53,45.53,0,0,0-3.05-11A7.43,7.43,0,0,1,144,171a7.56,7.56,0,0,1,2,.28q-.87-5.22-1.75-10.45a11.34,11.34,0,0,1,1.3-.08,10.46,10.46,0,0,1,4.66,1.09l-.57-6.35q.36,0,.72,0a7.21,7.21,0,0,1,3.93,1.17c1.26-3.75,2.61-7.64,5.4-10.44a10.28,10.28,0,0,1,7-3,6.74,6.74,0,0,1,3.76,1.08,14.13,14.13,0,0,1,8.87-12.48A92.28,92.28,0,0,0,197,101.62l4.2.91c-.63-1.71-1.26-3.57-.73-5.31a3.37,3.37,0,0,1,3-2.32,2,2,0,0,1,1.24.42c.28-1.71.55-3.43.83-5.15l5.3-7.48,1.32-7.75,6.88,2a21,21,0,0,1,2.78-13.56l5.42,1.8c-1.42-2.58,1.36-5.85,4.06-5.85a3.08,3.08,0,0,1,1.7.5,9.48,9.48,0,0,1,6.85-11.49c-.24-2.48-.49-5-.73-7.43a12,12,0,0,1,6,3.52A18.8,18.8,0,0,1,246.93,32L254,39q1.58-4.85,3.14-9.67a5.79,5.79,0,0,1,2.37,3.55A97.1,97.1,0,0,1,285.75,7.29m-.57-.86a98.78,98.78,0,0,0-25.4,24.25,6.87,6.87,0,0,0-2-2.24l-1.15-.79L256.16,29l-2.63,8.08-5.88-5.77-1-1L246,31.53a19.64,19.64,0,0,0-2.27,10.35,13.09,13.09,0,0,0-4.37-2L238,39.56l.14,1.45.65,6.56a10.18,10.18,0,0,0-5.57,4.57,10.38,10.38,0,0,0-1.5,6.17l-.37,0a5.82,5.82,0,0,0-4.76,2.91,4.92,4.92,0,0,0-.71,2.42l-1-.32-2.71-.9-.79-.27-.43.72a22,22,0,0,0-3.07,12.67l-4.14-1.21L212.47,74l-1.11-.33-.19,1.15L210.44,79l-.56,3.29-5.17,7.28-.14.2,0,.24-.42,2.57-.21,1.32a3,3,0,0,0-.42,0,4.42,4.42,0,0,0-4,3,7.41,7.41,0,0,0,.16,4.21l-.32-.07-2.1-.45-.89-.19-.3.86a91.84,91.84,0,0,1-17.32,29.6,15.27,15.27,0,0,0-9.15,11.74,8.24,8.24,0,0,0-2.86-.51,11.25,11.25,0,0,0-7.75,3.36c-2.7,2.71-4.11,6.32-5.26,9.68a8.15,8.15,0,0,0-3.34-.72c-.28,0-.56,0-.83,0l-1,.11.09,1,.3,3.31.12,1.35a11.7,11.7,0,0,0-3.48-.53,11.32,11.32,0,0,0-1.43.09l-1.07.13.18,1.06,1.51,9-.75,0a8.47,8.47,0,0,0-3,.53l-1,.37.42,1a43.63,43.63,0,0,1,2.64,8.72l-2.8-1.45-1.34-.69-.16,1.5a59.48,59.48,0,0,0,.07,13.27l-4-3.27-.79-.65-.66.79a46,46,0,0,0-9,17.43l-1.8-1.51-.75-.63-.67.72a21.71,21.71,0,0,0-5.64,13,4.26,4.26,0,0,0-1.5-.26,4.87,4.87,0,0,0-3.55,1.5,8.82,8.82,0,0,0-2,5.07l-2.75-1.18-1-.42-.38,1-1.06,2.76-.48,1.25-3.24-.39-.72-.08-.33.65a36.28,36.28,0,0,0-3.8,16.64l-1-.16-2.25-.38-1.31-.22.11,1.33.41,4.88.25,3a1.62,1.62,0,0,0-.31,0,2.44,2.44,0,0,0-1,.21c-1.53.68-2.14,2.36-2.5,3.36l-2.89,8-2.6,7.17-2.54-.47-2.88-.53-1-.18-.2,1-.49,2.53-.33,1.72A16.47,16.47,0,0,0,68,275.62l-1.08,0-1.05.08.09,1,.73,8.17-.62-.17-3.32-.92-.55,2c.06.1.71,1.44-3.51,9.56-2.63,5.09-6.29,11.16-9.23,16-3.43,5.7-5.24,8.72-5.51,9.87l-.37,1.56,1.57-.3C55,320.68,66.69,309,75.23,300.52c1.21-1.21,2.37-2.36,3.44-3.4a7.87,7.87,0,0,0,3,1.72l1.14.34L83,298l.57-3.77.47-3.12a6.64,6.64,0,0,1,1.55-.18A7,7,0,0,1,90.57,293l1.17,1.22.55-1.61.58-1.69.66-1.93,2.89,2.72,1.31,1.24.4-1.76,3.31-14.4,6.82,1.7,1.68.42-.43-1.68c-.91-3.51,1.9-7,4.38-10.06a86.78,86.78,0,0,0,16.19-31.72l6.68,9.22,1.68,2.32.19-2.86,1.05-16.1c.36-5.66,1-11.06,4.07-14.77l1.14,1.56,3.76,5.17,1.56,2.15.31-2.64a42.28,42.28,0,0,1,9.55-22.14c2.69-.86,4.37-3.32,5.86-5.78l2.37-3.94,6-9.92c2.73-4.54,5.52-9.73,4.84-14.91a5.25,5.25,0,0,0,.79.06c3.48,0,6.42-3.21,9.27-6.32,2.55-2.78,5.18-5.66,7.77-5.66a3.89,3.89,0,0,1,1.69.41l1.29.62.19-1.41L201.8,138l4.27,1.89,1.55.69-.09-1.69-.88-15.09,2.12.9,3.64,1.55,1.81.78-.39-1.93a5.21,5.21,0,0,1,1.23-4.28,5.82,5.82,0,0,1,4.37-2.24,4.33,4.33,0,0,1,.95.11l1.36.3-.1-1.39c-.63-9.07,6.7-18.2,15.7-19.53l1.12-.17-.27-1.11a10.58,10.58,0,0,1,.29-5.95,3.74,3.74,0,0,0,1.59.34,5,5,0,0,0,4.33-2.63,8.42,8.42,0,0,0,.29-5.91l1.86,0,3.19,0h.86l.14-.86.78-4.72a4.32,4.32,0,0,0,1.24.17,4.4,4.4,0,0,0,1.84-.39l.47-.2.12-.49,1.39-5.71,2.64-10.85a6.84,6.84,0,0,0,4.26-5.82l4.63.23,1.12.05,0-1.11a23.36,23.36,0,0,1,7.94-18.05l-1.28-1.62-4.58,3.25A266.38,266.38,0,0,1,286.62,7.84l-1.44-1.41Z"/><path class="c" d="M142.93,287.8q1.31,1.95,2.62,3.89,1.09-5.82,2.2-11.64c-.34,1.67,2.5,2.35,3.6,1.05s.85-3.24.55-4.92l3,2.26,1.5-3.26c2.47.08,3.56-2.94,4.76-5.09s5.17-3.28,5.52-.84c2.25-6.37,4.63-13,9.35-17.78,3.43-3.52,8.19-6.27,9.51-11a5.28,5.28,0,0,1,1.07-2.53c.67-.64,2.1-.47,2.19.46A23.32,23.32,0,0,1,193.44,223l3.25,4a29.47,29.47,0,0,1,4.74-11l2.29,3.18,8-15.4c.35,1.18.71,2.36,1.06,3.54a42.21,42.21,0,0,0,5.65-13.58,8.91,8.91,0,0,0,6.31,2.3,23,23,0,0,1,1.65-7.59l4.8,2.51a15.86,15.86,0,0,1,.48-8.87l8.61,2a18.48,18.48,0,0,1-.17-9.87l11.76,6.74q-1.38-6.46-2.75-12.92a12.33,12.33,0,0,0,5.15,1.58,62.33,62.33,0,0,1-1.69-14.13,5.09,5.09,0,0,0,5.28-4.17l3.22,1.31a19.59,19.59,0,0,1-1-9.36l5.84,3a14.06,14.06,0,0,1,.82-12.34l5.15.78.43-6,6.72-1a5.82,5.82,0,0,1,1.22-3.63l3.94,2.24A248.7,248.7,0,0,1,302.45,108l-8.19,24.56a10.51,10.51,0,0,1-2.52,4.68c-1.34,1.19-3.64,1.51-4.85.18a7.5,7.5,0,0,1-2.69,9.12q-.52,3.51-1.06,7a4.3,4.3,0,0,1-3.34-.46,23.67,23.67,0,0,1,1.06,7.19c-2.31-.09-3.82,2.33-4.83,4.42l-10.09,21c-.76,1.58-2.5,3.44-3.9,2.38l-7.22,16.34c.33-1.65-2.23-2.24-3.78-1.57s-3.32,1.79-4.73.87q-1.53,2.53-3.07,5.06l-3.15-3.43q-5.33,9.74-10.63,19.49a28.75,28.75,0,0,0-2.68-4.2,28.12,28.12,0,0,0-10.65,17.92,10.2,10.2,0,0,1-2.36-6.83,38.21,38.21,0,0,1-6.87,18.85,10.18,10.18,0,0,1-3.12-4.81,54.27,54.27,0,0,1-3.5,15.08,15.07,15.07,0,0,0-9.05-3.69,17.38,17.38,0,0,1-2.95,16.73q-1.47,5.64-2.93,11.29a18.86,18.86,0,0,1-3.82-5.84,14.48,14.48,0,0,1-1.74,8.89l-5.4-6.05A7.77,7.77,0,0,1,168.7,289q-1.81,5.23-3.61,10.48l-4.6-5.19a12.54,12.54,0,0,1-2.2,5.57c-1.29,1.55-3.69,2.38-5.38,1.29q-1.71,4.88-3.43,9.74c-1.07-1.16-2.14-2.33-3.22-3.49a9.08,9.08,0,0,0-4.3,5.68c-2.55-1.52-5.61.82-7.65,3l-14.9,15.82a78.51,78.51,0,0,1,7.93-15.17h-5.88C130.49,308.89,135.37,297.07,142.93,287.8Z"/><path class="b" d="M302.45,108l-8.19,24.56a10.51,10.51,0,0,1-2.52,4.68,4.26,4.26,0,0,1-2.73,1,2.79,2.79,0,0,1-2.12-.86,7.5,7.5,0,0,1-2.69,9.12q-.52,3.51-1.06,7a4.2,4.2,0,0,1-1.12.15,4.36,4.36,0,0,1-2.22-.61,23.67,23.67,0,0,1,1.06,7.19h-.12c-2.25,0-3.72,2.37-4.71,4.42l-10.09,21c-.61,1.25-1.83,2.69-3,2.69A1.4,1.4,0,0,1,262,188l-7.22,16.34c.24-1.21-1-1.84-2.37-1.84a3.65,3.65,0,0,0-1.41.27,10.18,10.18,0,0,1-3.53,1.22,2.12,2.12,0,0,1-1.2-.35q-1.53,2.53-3.07,5.06l-3.15-3.43q-5.33,9.74-10.63,19.49a28.75,28.75,0,0,0-2.68-4.2,28.12,28.12,0,0,0-10.65,17.92,10.2,10.2,0,0,1-2.36-6.83,38.21,38.21,0,0,1-6.87,18.85,10.18,10.18,0,0,1-3.12-4.81,54.27,54.27,0,0,1-3.5,15.08,15.07,15.07,0,0,0-9.05-3.69,17.38,17.38,0,0,1-2.95,16.73q-1.47,5.64-2.93,11.29a18.86,18.86,0,0,1-3.82-5.84,14.48,14.48,0,0,1-1.74,8.89l-5.4-6.05A7.75,7.75,0,0,1,168.7,289q-1.81,5.23-3.61,10.48l-4.6-5.19a12.54,12.54,0,0,1-2.2,5.57,5,5,0,0,1-3.63,1.79,3.15,3.15,0,0,1-1.75-.5l-3.43,9.74c-1.07-1.16-2.14-2.33-3.22-3.49a9.08,9.08,0,0,0-4.3,5.68,3.36,3.36,0,0,0-1.76-.48c-2.1,0-4.3,1.78-5.89,3.46l-14.9,15.82a78.51,78.51,0,0,1,7.93-15.17h-5.88c9-7.79,13.91-19.61,21.47-28.88q1.31,1.95,2.62,3.89l2.19-11.6c-.18,1.05.89,1.69,2,1.69a2.12,2.12,0,0,0,1.64-.68c1.1-1.31.85-3.24.55-4.92l3,2.26,1.5-3.26h.1c2.4,0,3.48-3,4.66-5.1a4.77,4.77,0,0,1,3.79-2.22,1.57,1.57,0,0,1,1.73,1.38c2.25-6.37,4.63-13,9.35-17.78,3.43-3.52,8.19-6.27,9.51-11a5.28,5.28,0,0,1,1.07-2.53,1.5,1.5,0,0,1,1-.38,1,1,0,0,1,1.15.84A23.32,23.32,0,0,1,193.44,223l3.25,4a29.47,29.47,0,0,1,4.74-11l2.29,3.18,8-15.4c.35,1.18.71,2.36,1.06,3.54a42.21,42.21,0,0,0,5.65-13.58,8.93,8.93,0,0,0,5.95,2.31h.36a23,23,0,0,1,1.65-7.59l4.8,2.51a15.86,15.86,0,0,1,.48-8.87l8.61,2a18.48,18.48,0,0,1-.17-9.87l11.76,6.74q-1.38-6.46-2.75-12.92a12.33,12.33,0,0,0,5.15,1.58,62.33,62.33,0,0,1-1.69-14.13l.37,0a5.13,5.13,0,0,0,4.91-4.19l3.22,1.31a19.59,19.59,0,0,1-1-9.36l5.84,3a14.06,14.06,0,0,1,.82-12.34l5.15.78.43-6,6.72-1a5.82,5.82,0,0,1,1.22-3.63l3.94,2.24A248.7,248.7,0,0,1,302.45,108M147.75,280.05v0M304.67,104.59l-2.92,2.65c-6.16,5.58-12.11,11.54-17.69,17.72l-1.25-.71-2-1.12-.78-.44-.55.71a6.81,6.81,0,0,0-1.39,3.36l-2.52.37-3.36.49-.82.13-.06.82-.22,3.12-.13,1.79-1.47-.23-2.57-.39-.7-.1-.35.6a15.2,15.2,0,0,0-1.66,10.81l-3.63-1.89-1.29-.67-.21,1.45a20.53,20.53,0,0,0,.37,7.73l-1.22-.49-1.22-.5-.19,1.3a4.09,4.09,0,0,1-3.89,3.3h-.28l-1.13-.09v1.13A62.7,62.7,0,0,0,253,168.31a11.45,11.45,0,0,1-3.3-1.24l-2-1.13.48,2.25,1.37,6.46.9,4.19-9.75-5.58-1.17-.68-.35,1.31a19.27,19.27,0,0,0-.24,8.74l-3.11-.71-3.85-.89-.9-.21-.31.87a16.86,16.86,0,0,0-.87,7.33l-3-1.55-1-.52-.42,1.05a24,24,0,0,0-1.66,6.93,7.92,7.92,0,0,1-4.64-2l-1.32-1.21-.39,1.74a41,41,0,0,1-4.32,11.28l-.39-1.31L212,201l-1.17,2.25-7.25,13.91-.17-.23-1.15-1.59-.85-1.18-.83,1.19a30.32,30.32,0,0,0-4.4,9.32l-2-2.35-.83-1-.79,1.05a24.49,24.49,0,0,0-4.84,14.18h-.07a2.55,2.55,0,0,0-1.75.67,4.92,4.92,0,0,0-1.24,2.55c0,.15-.07.3-.12.45-.87,3.12-3.42,5.34-6.12,7.68-1.06.92-2.15,1.87-3.13,2.87-4.5,4.6-6.93,10.73-9,16.4a3,3,0,0,0-1.38-.3,5.74,5.74,0,0,0-4.69,2.75c-.2.35-.39.72-.59,1.1-1,2-1.89,3.46-3.17,3.46h-.06l-.69,0-.28.62-1,2.1-1.49-1.11-.54-.39-2.1-1.55.47,2.57c.27,1.46.49,3.1-.32,4.06a1.11,1.11,0,0,1-.85.32,1.29,1.29,0,0,1-.91-.32.18.18,0,0,1,0-.16l-.44-.08-1.58-.35h0v0h0l-1.64,8.64L145,289l-1.21-1.79-.77-1.16-.89,1.08A120.13,120.13,0,0,0,134,298.89c-3.86,6.08-7.85,12.36-13.23,17l-2.1,1.82h6.74a79.71,79.71,0,0,0-7,13.75l1.72,1.09,14.91-15.82c1.91-2,3.73-3.14,5.13-3.14a2.33,2.33,0,0,1,1.23.34l1.2.71.33-1.35a8.06,8.06,0,0,1,3.13-4.59l2.63,2.85,1.17,1.26.57-1.62,1.71-4.87,1.35-3.83a4.3,4.3,0,0,0,1.14.15,6,6,0,0,0,4.43-2.15,10.54,10.54,0,0,0,1.94-4.07l1.56,1.76,1.72,1.95,1.18,1.32.57-1.67,1.81-5.24,1.63-4.74a8.83,8.83,0,0,0,5.48-5.45l4,4.52,1,1.08.71-1.26a15.48,15.48,0,0,0,1.83-5.41,19.72,19.72,0,0,0,2.09,2.57l1.28,1.32.46-1.78,2.87-11.07a18.41,18.41,0,0,0,3.46-16,13.91,13.91,0,0,1,6.92,3.27l1.11,1,.53-1.38a55.13,55.13,0,0,0,3.16-11.88,11,11,0,0,0,1.83,2l.86.74.66-.93a39.09,39.09,0,0,0,6.23-14,10.8,10.8,0,0,0,1.36,2.06l1.47,1.74.34-2.25a27.08,27.08,0,0,1,9.43-16.61,27,27,0,0,1,2,3.21l.9,1.72.93-1.7.81-1.5,9.12-16.73,2.18,2.37.93,1,.72-1.18,2.61-4.31a3.19,3.19,0,0,0,.77.09,8,8,0,0,0,3.21-1l.73-.33a2.58,2.58,0,0,1,1-.19,1.89,1.89,0,0,1,1.32.41s.06.08,0,.2l2,.61,4.91-11.12,1.9-4.31a2.07,2.07,0,0,0,.35,0c1.86,0,3.35-2.07,3.94-3.29l5.59-11.61,4.5-9.35c1.24-2.58,2.48-3.83,3.78-3.83h.08l1.07,0v-1.07a25,25,0,0,0-.6-5.6,5.79,5.79,0,0,0,.72,0,5.43,5.43,0,0,0,1.4-.18l.64-.18.1-.66,1-6.56a8.66,8.66,0,0,0,3.31-7.85,4.63,4.63,0,0,0,.54,0,5.24,5.24,0,0,0,3.41-1.31,11.36,11.36,0,0,0,2.82-5.12l5.46-16.37,2.73-8.19,1.24-3.74Z"/></g></svg>