<svg xmlns="http://www.w3.org/2000/svg" viewBox="0 0 290 156"><defs><style>.a{font-size:44.8px;font-family:KiloGram;}.b{letter-spacing:-0.03em;}.c{letter-spacing:-0.05em;}.d{letter-spacing:-0.05em;}</style></defs><path d="M32.51,54.48,2.82,4.22H62.13Z"/><rect x="64.47" y="4.29" width="24.39" height="46.91"/><path d="M136.52,23.38a18.79,18.79,0,0,1-7.31,15l6.9,12.93H94.9v-47h22.52A19.09,19.09,0,0,1,136.52,23.38Z"/><path d="M167,1l29.62,50.2H137.39Z"/><path d="M134.11,85.45v23.46H97.65V62h23.46V85.45Z"/><path d="M165.67,58.71l29.63,50.2H136.05Z"/><polygon points="222.77 108.97 199.32 108.97 199.32 85.52 189.6 85.52 189.6 61.99 231.89 61.99 231.89 85.52 222.77 85.52 222.77 108.97"/><path d="M256.08,58.71l29.62,50.2H226.46Z"/><text class="a" transform="translate(97.89 152.18)"><tspan class="b">E</tspan><tspan x="22.53" y="0">VEN</tspan><tspan class="c" x="116.21" y="0">T</tspan><tspan class="d" x="137.94" y="0">O</tspan><tspan x="169.39" y="0">S</tspan></text></svg>